<?xml version="1.0" encoding="utf-8"?>
<!-- Generator: Adobe Illustrator 20.1.0, SVG Export Plug-In . SVG Version: 6.00 Build 0)  -->
<svg version="1.1" id="Ebene_1" xmlns="http://www.w3.org/2000/svg" xmlns:xlink="http://www.w3.org/1999/xlink" x="0px" y="0px"
	 viewBox="0 0 39.1 50" style="enable-background:new 0 0 39.1 50;" xml:space="preserve">
<path d="M37.6,25h-3.9V14h0C33.6,6.3,27.3,0,19.6,0S5.5,6.3,5.5,14h0v11H1.6C0.7,25,0,25.7,0,26.5v21.9C0,49.3,0.7,50,1.6,50h36
	c0.9,0,1.6-0.7,1.6-1.6V26.5C39.1,25.7,38.4,25,37.6,25z M11,14C11,14,11,14,11,14c0-4.7,3.9-8.5,8.6-8.5c4.7,0,8.6,3.8,8.6,8.5
	c0,0,0,0,0,0v11H11V14z M22.5,41.4h-5.9l1.9-5.5c-1.2-0.4-2.1-1.6-2.1-2.9c0-1.7,1.4-3.1,3.1-3.1s3.1,1.4,3.1,3.1
	c0,1.4-0.9,2.5-2.1,2.9L22.5,41.4z"/>
</svg>
